<svg width="24" height="24" viewBox="0 0 24 24" fill="none" xmlns="http://www.w3.org/2000/svg">
<path fill-rule="evenodd" clip-rule="evenodd" d="M23 12C23 5.92487 18.0751 1 12 1C5.92487 1 1 5.92487 1 12C1 18.0751 5.92487 23 12 23C18.0751 23 23 18.0751 23 12ZM12 5C12.5523 5 13 5.44772 13 6V11.5109L17.1139 14.7106C17.5499 15.0497 17.6284 15.678 17.2894 16.1139C16.9503 16.5499 16.322 16.6284 15.8861 16.2894L11.3861 12.7894C11.1425 12.5999 11 12.3086 11 12V6C11 5.44772 11.4477 5 12 5Z" fill="#7B7B7B"/>
</svg>
