<svg width="24" height="24" viewBox="0 0 24 24" fill="none" xmlns="http://www.w3.org/2000/svg">
<path fill-rule="evenodd" clip-rule="evenodd" d="M20 12C20 7.58172 16.4183 4 12 4C7.58172 4 4 7.58172 4 12C4 16.4183 7.58172 20 12 20C16.4183 20 20 16.4183 20 12ZM12 6.90909C12.4017 6.90909 12.7273 7.2347 12.7273 7.63636V11.6443L15.7192 13.9714C16.0363 14.218 16.0934 14.6749 15.8468 14.992C15.6002 15.309 15.1433 15.3661 14.8262 15.1195L11.5535 12.5741C11.3763 12.4363 11.2727 12.2244 11.2727 12V7.63636C11.2727 7.2347 11.5983 6.90909 12 6.90909Z" fill="#7B7B7B"/>
</svg>
