<svg width="17" height="18" viewBox="0 0 17 18" fill="none" xmlns="http://www.w3.org/2000/svg">
<path fill-rule="evenodd" clip-rule="evenodd" d="M14.4608 3.98727L13.5127 3.03916C12.7938 2.32028 11.6283 2.32028 10.9094 3.03916L8.53916 5.40942C7.82028 6.12831 7.82028 7.29385 8.53916 8.01273L8.66567 8.13924L7.63924 9.16567L7.51273 9.03916C6.79385 8.32028 5.62831 8.32028 4.90942 9.03916L2.53916 11.4094C1.82028 12.1283 1.82028 13.2938 2.53916 14.0127L3.48727 14.9608C4.20615 15.6797 5.37169 15.6797 6.09058 14.9608L8.46084 12.5906C9.17972 11.8717 9.17972 10.7062 8.46084 9.98727L8.34635 9.87278L9.37278 8.84635L9.48727 8.96084C10.2062 9.67972 11.3717 9.67972 12.0906 8.96084L14.4608 6.59058C15.1797 5.87169 15.1797 4.70615 14.4608 3.98727ZM10.0799 8.13924L10.1944 8.25373C10.5227 8.58209 11.0551 8.58209 11.3835 8.25373L13.7537 5.88347C14.0821 5.55511 14.0821 5.02273 13.7537 4.69437L12.8056 3.74627C12.4773 3.41791 11.9449 3.41791 11.6165 3.74627L9.24627 6.11653C8.91791 6.44489 8.91791 6.97727 9.24627 7.30563L9.37278 7.43213L10.1525 6.65246C10.3649 6.44003 10.6648 6.45768 10.8596 6.65246C11.0543 6.84724 11.072 7.14714 10.8596 7.35956L10.0799 8.13924ZM6.93213 9.87278L6.15246 10.6525C5.94003 10.8649 5.95768 11.1648 6.15246 11.3596C6.34724 11.5543 6.64714 11.572 6.85956 11.3596L7.63924 10.5799L7.75373 10.6944C8.08209 11.0227 8.08209 11.5551 7.75373 11.8835L5.38347 14.2537C5.05511 14.5821 4.52273 14.5821 4.19437 14.2537L3.24627 13.3056C2.91791 12.9773 2.91791 12.4449 3.24627 12.1165L5.61653 9.74627C5.94489 9.41791 6.47727 9.41791 6.80563 9.74627L6.93213 9.87278Z" fill="#7B7B7B"/>
</svg>
