<svg width="20" height="20" viewBox="0 0 20 20" fill="none" xmlns="http://www.w3.org/2000/svg">
<path fill-rule="evenodd" clip-rule="evenodd" d="M6.38605 3.91675L6.94612 2.23656C7.05954 1.89627 7.37799 1.66675 7.73668 1.66675H12.2367C12.5954 1.66675 12.9138 1.89627 13.0273 2.23656L13.5873 3.91675H17.4867C17.9469 3.91675 18.32 4.28984 18.32 4.75008C18.32 5.21032 17.9469 5.58341 17.4867 5.58341H16.7724L16.1609 15.9802C16.0831 17.3016 14.9889 18.3334 13.6652 18.3334H6.30819C4.9845 18.3334 3.89024 17.3016 3.81251 15.9802L3.20093 5.58341H2.49996C2.03972 5.58341 1.66663 5.21032 1.66663 4.75008C1.66663 4.28984 2.03972 3.91675 2.49996 3.91675H6.38605ZM8.14287 3.91675H11.8305L11.6361 3.33341H8.33732L8.14287 3.91675ZM15.1029 5.58341H4.87048L5.4763 15.8823C5.50221 16.3228 5.86696 16.6667 6.30819 16.6667H13.6652C14.1064 16.6667 14.4712 16.3228 14.4971 15.8823L15.1029 5.58341ZM11.405 7.6981C11.4337 7.23876 11.8293 6.88966 12.2887 6.91837C12.748 6.94708 13.0971 7.34272 13.0684 7.80206L12.6934 13.8021C12.6647 14.2614 12.269 14.6105 11.8097 14.5818C11.3504 14.5531 11.0013 14.1574 11.03 13.6981L11.405 7.6981ZM8.94339 13.6981C8.9721 14.1574 8.62301 14.5531 8.16367 14.5818C7.70432 14.6105 7.30868 14.2614 7.27997 13.8021L6.90497 7.80206C6.87626 7.34272 7.22536 6.94708 7.6847 6.91837C8.14404 6.88966 8.53969 7.23876 8.56839 7.6981L8.94339 13.6981Z" fill="#DA5050"/>
</svg>
