<svg width="24" height="24" viewBox="0 0 24 24" fill="none" xmlns="http://www.w3.org/2000/svg">
<path fill-rule="evenodd" clip-rule="evenodd" d="M5.33333 17.403C7.68664 17.403 9.74654 17.9703 11.5238 19.1039V4.54022C9.72122 3.51306 7.65495 3 5.33333 3C5.07034 3 4.85714 3.21495 4.85714 3.4801V16.9229C4.85714 17.188 5.07034 17.403 5.33333 17.403ZM18.6667 3C16.3643 3 14.2981 3.51486 12.4762 4.54505V19.1053C14.2712 17.9705 16.3312 17.403 18.6667 17.403C18.9297 17.403 19.1429 17.188 19.1429 16.9229V3.4801C19.1429 3.21495 18.9297 3 18.6667 3ZM3.90476 5.84211V16.7233C3.90476 17.5106 4.54435 18.1488 5.33333 18.1488C7.09561 18.1488 8.66593 18.4848 10.0607 19.1563C8.95376 19.2315 8.06555 19.3839 7.13234 19.6325C6.95977 19.6784 6.41847 19.8436 5.74973 20.0477L5.7496 20.0478C4.7043 20.3668 3.34766 20.7808 2.60098 20.9831C2.29818 21.0652 2 20.8377 2 20.5246V8.17039C2 7.02099 2.81798 6.06223 3.90476 5.84211ZM20.0952 16.7233V5.84211C21.182 6.06223 22 7.02099 22 8.17039V20.5246C22 20.8377 21.7018 21.0652 21.399 20.9831C20.6523 20.7808 19.2957 20.3668 18.2504 20.0478C17.5816 19.8437 17.0402 19.6784 16.8677 19.6325C15.9369 19.3845 15.0509 19.2323 13.948 19.1569C15.3519 18.4848 16.9194 18.1488 18.6667 18.1488C19.4556 18.1488 20.0952 17.5106 20.0952 16.7233Z" fill="#7B7B7B"/>
</svg>
