<svg width="24" height="24" viewBox="0 0 24 24" fill="none" xmlns="http://www.w3.org/2000/svg">
<path d="M2.40039 7.20005C2.40039 6.56353 2.65325 5.95308 3.10333 5.50299C3.55342 5.05291 4.16387 4.80005 4.80039 4.80005H12.0004C12.6369 4.80005 13.2474 5.05291 13.6974 5.50299C14.1475 5.95308 14.4004 6.56353 14.4004 7.20005V16.8C14.4004 17.4366 14.1475 18.047 13.6974 18.4971C13.2474 18.9472 12.6369 19.2 12.0004 19.2H4.80039C4.16387 19.2 3.55342 18.9472 3.10333 18.4971C2.65325 18.047 2.40039 17.4366 2.40039 16.8V7.20005Z" fill="#7B7B7B"/>
<path d="M17.4644 8.52724C17.2651 8.62683 17.0974 8.77994 16.9802 8.96941C16.863 9.15889 16.8009 9.37725 16.8008 9.60004V14.4C16.8009 14.6228 16.863 14.8412 16.9802 15.0307C17.0974 15.2201 17.2651 15.3733 17.4644 15.4728L19.8644 16.6728C20.0473 16.7642 20.2505 16.8074 20.4548 16.7982C20.659 16.789 20.8576 16.7277 21.0315 16.6203C21.2055 16.5128 21.3491 16.3627 21.4487 16.1841C21.5483 16.0056 21.6007 15.8045 21.6008 15.6V8.40004C21.6007 8.19557 21.5483 7.99452 21.4487 7.81597C21.3491 7.63742 21.2055 7.48728 21.0315 7.37981C20.8576 7.27234 20.659 7.2111 20.4548 7.2019C20.2505 7.1927 20.0473 7.23585 19.8644 7.32724L17.4644 8.52724Z" fill="#7B7B7B"/>
</svg>
