<svg width="24" height="24" viewBox="0 0 24 24" fill="none" xmlns="http://www.w3.org/2000/svg">
<path fill-rule="evenodd" clip-rule="evenodd" d="M21.3904 4.21799C21.5559 4.43862 21.5126 4.75161 21.2924 4.91767C20.6137 5.42957 19.8622 5.99146 19.1522 6.52232L19.1515 6.52283L19.1507 6.52343L19.1474 6.52593L19.1351 6.5351C18.8822 6.72424 18.6346 6.90935 18.3976 7.08675C18.177 7.25188 17.8645 7.20759 17.6992 6.98714C17.5684 6.81266 17.4375 6.63766 17.3067 6.46266C17.1764 6.28845 17.0462 6.11424 16.9159 5.94056C16.7499 5.71916 16.7942 5.405 17.0155 5.23889L17.7674 4.67446C18.4774 4.14142 19.2289 3.57719 19.9077 3.06907C20.128 2.90413 20.4401 2.94862 20.6052 3.16882C20.7362 3.3435 20.8672 3.51871 20.9982 3.69391L20.9982 3.69397L21.0001 3.6965L21.0002 3.69666C21.1303 3.87061 21.2604 4.04456 21.3904 4.21799ZM19.4215 10.8464C19.1454 10.8464 18.9217 11.0702 18.9217 11.3464V12.6536C18.9217 12.9298 19.1454 13.1536 19.4215 13.1536H23.0364C23.3125 13.1536 23.5362 12.9298 23.5362 12.6536V11.3464C23.5362 11.0702 23.3125 10.8464 23.0364 10.8464H19.4215ZM16.9179 18.0682C16.7512 18.2908 16.7967 18.6066 17.0199 18.7724C17.7153 19.2889 18.5011 19.8775 19.2468 20.4361L19.2475 20.4366L19.9077 20.9309C20.128 21.0959 20.4401 21.0514 20.6052 20.8312C20.7362 20.6565 20.8671 20.4814 20.9981 20.3062C21.1282 20.1322 21.2583 19.9581 21.3885 19.7846C21.5547 19.5629 21.5101 19.2484 21.2883 19.0824C20.6105 18.5749 19.8603 18.0117 19.1515 17.4796L18.401 16.9162C18.1792 16.7498 17.8645 16.7958 17.6994 17.0186C17.4389 17.37 17.1784 17.7205 16.9179 18.0682ZM2.7711 8.53915C1.50212 8.53915 0.463867 9.57741 0.463867 10.8464V13.1536C0.463867 14.4226 1.50212 15.4608 2.7711 15.4608H3.72471C3.83517 15.4608 3.92471 15.5504 3.92471 15.6608V19.5753C3.92471 19.8514 4.14857 20.0753 4.42471 20.0753H5.73195C6.00809 20.0753 6.23195 19.8514 6.23195 19.5753V15.6608C6.23195 15.5504 6.32149 15.4608 6.43195 15.4608H7.10858C7.28982 15.4608 7.46766 15.5101 7.62307 15.6034L12.8507 18.74C12.984 18.8199 13.1536 18.7239 13.1536 18.5685V15.8531C14.215 14.9187 14.8841 13.5343 14.8841 12C14.8841 10.4657 14.215 9.08138 13.1536 8.13541V5.43154C13.1536 5.27608 12.984 5.18006 12.8507 5.26004L7.62307 8.39664C7.46766 8.48989 7.28982 8.53915 7.10858 8.53915H2.7711ZM8.57379 10.5118L10.5436 9.33192C10.6769 9.25207 10.8464 9.34811 10.8464 9.5035V14.4965C10.8464 14.6519 10.6769 14.7479 10.5436 14.6681L8.57379 13.4882L8.25854 13.2977C8.10252 13.2034 7.9237 13.1536 7.74142 13.1536H7.38556H3.2711C2.99496 13.1536 2.7711 12.9298 2.7711 12.6536V11.3464C2.7711 11.0702 2.99496 10.8464 3.2711 10.8464H7.38556H7.74142C7.9237 10.8464 8.10252 10.7966 8.25853 10.7023L8.57379 10.5118Z" fill="#7B7B7B"/>
</svg>
