<svg width="24" height="24" viewBox="0 0 24 24" fill="none" xmlns="http://www.w3.org/2000/svg">
<path d="M18 12C18 12.55 18.45 13 19 13H21C21.55 13 22 12.55 22 12C22 11.45 21.55 11 21 11H19C18.45 11 18 11.45 18 12Z" fill="#7B7B7B"/>
<path d="M16.5896 16.8199C16.2596 17.2599 16.3496 17.8699 16.7896 18.1899C17.3196 18.5799 17.8796 18.9999 18.4096 19.3999C18.8496 19.7299 19.4696 19.6399 19.7896 19.1999C19.7896 19.1899 19.7996 19.1899 19.7996 19.1799C20.1296 18.7399 20.0396 18.1199 19.5996 17.7999C19.0696 17.3999 18.5096 16.9799 17.9896 16.5899C17.5496 16.2599 16.9296 16.3599 16.5996 16.7999C16.5996 16.8099 16.5896 16.8199 16.5896 16.8199Z" fill="#7B7B7B"/>
<path d="M19.8098 4.81004C19.8098 4.80004 19.7998 4.80004 19.7998 4.79004C19.4698 4.35004 18.8498 4.26005 18.4198 4.59005C17.8898 4.99005 17.3198 5.41004 16.7998 5.81004C16.3598 6.14004 16.2798 6.76005 16.6098 7.19005C16.6098 7.20005 16.6198 7.20005 16.6198 7.21005C16.9498 7.65005 17.5598 7.74004 17.9998 7.41004C18.5298 7.02004 19.0898 6.59004 19.6198 6.19004C20.0498 5.87004 20.1298 5.25004 19.8098 4.81004Z" fill="#7B7B7B"/>
<path d="M8 9H4C2.9 9 2 9.9 2 11V13C2 14.1 2.9 15 4 15H5V18C5 18.55 5.45 19 6 19C6.55 19 7 18.55 7 18V15H8L13 18V6L8 9Z" fill="#7B7B7B"/>
<path d="M15.5 11.9999C15.5 10.6699 14.92 9.4699 14 8.6499V15.3399C14.92 14.5299 15.5 13.3299 15.5 11.9999Z" fill="#7B7B7B"/>
</svg>
