<svg width="24" height="24" viewBox="0 0 24 24" fill="none" xmlns="http://www.w3.org/2000/svg">
<path fill-rule="evenodd" clip-rule="evenodd" d="M4.06757 13H8.93243C10.0743 13 11 13.9257 11 15.0676V19.9324C11 21.0743 10.0743 22 8.93243 22H4.06757C2.92568 22 2 21.0743 2 19.9324V15.0676C2 13.9257 2.92568 13 4.06757 13ZM4.06757 2H8.93243C10.0743 2 11 2.92568 11 4.06757V8.93243C11 10.0743 10.0743 11 8.93243 11H4.06757C2.92568 11 2 10.0743 2 8.93243V4.06757C2 2.92568 2.92568 2 4.06757 2ZM15.0676 2H19.9324C21.0743 2 22 2.92568 22 4.06757V8.93243C22 10.0743 21.0743 11 19.9324 11H15.0676C13.9257 11 13 10.0743 13 8.93243V4.06757C13 2.92568 13.9257 2 15.0676 2Z" fill="#7B7B7B"/>
<path fill-rule="evenodd" clip-rule="evenodd" d="M17.7368 20.6842L15.3215 21.9452C14.9739 22.1267 14.5689 21.8312 14.6356 21.4447L15.0961 18.7783L13.1447 16.8894C12.862 16.6157 13.017 16.1365 13.4065 16.0803L16.106 15.6908L17.3127 13.2628C17.4868 12.9124 17.9868 12.9124 18.1609 13.2628L19.3676 15.6908L22.0671 16.0803C22.4566 16.1365 22.6116 16.6157 22.3289 16.8894L20.3775 18.7783L20.838 21.4447C20.9047 21.8312 20.4997 22.1267 20.1521 21.9452L17.7368 20.6842Z" fill="#7B7B7B"/>
</svg>
