<svg width="16" height="16" viewBox="0 0 16 16" fill="none" xmlns="http://www.w3.org/2000/svg">
<path fill-rule="evenodd" clip-rule="evenodd" d="M7.32105 9.26017L5.67731 7.63757C5.48078 7.44358 5.16421 7.44563 4.97021 7.64215C4.77622 7.83867 4.77827 8.15525 4.97479 8.34924L7.00756 10.3558C7.21657 10.5622 7.55755 10.5448 7.74447 10.3182L11.045 6.31824C11.2208 6.10524 11.1906 5.7901 10.9776 5.61435C10.7646 5.4386 10.4495 5.4688 10.2737 5.68179L7.32105 9.26017Z" fill="#7B7B7B"/>
<path fill-rule="evenodd" clip-rule="evenodd" d="M6.33337 0.833252H9.66671C12.7043 0.833252 15.1667 3.29569 15.1667 6.33325V9.66658C15.1667 12.7042 12.7043 15.1666 9.66671 15.1666H6.33337C3.29581 15.1666 0.833374 12.7042 0.833374 9.66658V6.33325C0.833374 3.29569 3.29581 0.833252 6.33337 0.833252ZM6.33337 1.83325C3.84809 1.83325 1.83337 3.84797 1.83337 6.33325V9.66659C1.83337 12.1519 3.84809 14.1666 6.33337 14.1666H9.66671C12.152 14.1666 14.1667 12.1519 14.1667 9.66659V6.33325C14.1667 3.84797 12.152 1.83325 9.66671 1.83325H6.33337Z" fill="#7B7B7B"/>
</svg>
