<svg width="16" height="16" viewBox="0 0 16 16" fill="none" xmlns="http://www.w3.org/2000/svg">
<path fill-rule="evenodd" clip-rule="evenodd" d="M6.24996 3.62516L6.24996 3.12516C6.24996 2.37921 6.98732 1.75016 7.91662 1.75016L12.5 1.75016C13.4293 1.75016 14.1666 2.37921 14.1666 3.12516L14.1666 12.4585C14.1666 13.2044 13.4293 13.8335 12.5 13.8335L7.91662 13.8335C6.98732 13.8335 6.24996 13.2044 6.24996 12.4585L6.24996 11.9585C6.24996 11.6133 5.97014 11.3335 5.62496 11.3335C5.27978 11.3335 4.99996 11.6133 4.99996 11.9585L4.99996 12.4585C4.99996 13.9195 6.31337 15.0835 7.91663 15.0835L12.5 15.0835C14.1032 15.0835 15.4166 13.9195 15.4166 12.4585L15.4166 3.12516C15.4166 1.66412 14.1032 0.500161 12.5 0.500161L7.91662 0.500162C6.31336 0.500162 4.99996 1.66412 4.99996 3.12516L4.99996 3.62516C4.99996 4.4585 6.24996 4.4585 6.24996 3.62516ZM8.95829 7.16684L2.94479 7.16684L3.40023 6.7114C3.64431 6.46732 3.64431 6.0716 3.40023 5.82752C3.15616 5.58344 2.76043 5.58344 2.51635 5.82752L0.849683 7.49419C0.606756 7.73711 0.605443 8.13057 0.846746 8.37511L2.51341 10.0642C2.75586 10.3099 3.15158 10.3125 3.39728 10.0701C3.64298 9.82761 3.64562 9.43189 3.40317 9.18619L2.64402 8.41684L8.95829 8.41684C9.30347 8.41684 9.58329 8.13702 9.58329 7.79184C9.58329 7.44666 9.30347 7.16684 8.95829 7.16684Z" fill="#7B7B7B"/>
</svg>
