<svg width="24" height="24" viewBox="0 0 24 24" fill="none" xmlns="http://www.w3.org/2000/svg">
<path fill-rule="evenodd" clip-rule="evenodd" d="M12 7C10.3431 7 9 5.65685 9 4C9 2.34315 10.3431 1 12 1C13.6569 1 15 2.34315 15 4C15 5.65685 13.6569 7 12 7ZM11 7H13C14.6569 7 16 8.34315 16 10V11C16 12.6569 14.6569 14 13 14H11C9.34315 14 8 12.6569 8 11V10C8 8.34315 9.34315 7 11 7ZM19 16C17.3431 16 16 14.6569 16 13C16 11.3431 17.3431 10 19 10C20.6569 10 22 11.3431 22 13C22 14.6569 20.6569 16 19 16ZM18 16H20C21.6569 16 23 17.3431 23 19V20C23 21.6569 21.6569 23 20 23H18C16.3431 23 15 21.6569 15 20V19C15 17.3431 16.3431 16 18 16ZM5 16C3.34315 16 2 14.6569 2 13C2 11.3431 3.34315 10 5 10C6.65685 10 8 11.3431 8 13C8 14.6569 6.65685 16 5 16ZM4 16H6C7.65685 16 9 17.3431 9 19V20C9 21.6569 7.65685 23 6 23H4C2.34315 23 1 21.6569 1 20V19C1 17.3431 2.34315 16 4 16Z" fill="#7B7B7B"/>
</svg>
