<svg width="24" height="24" viewBox="0 0 24 24" fill="none" xmlns="http://www.w3.org/2000/svg">
<path d="M19.4093 4.17071C19.4723 4.10771 19.4277 4 19.3386 4H15.5C15.2239 4 15 3.77614 15 3.5V2.5C15 2.22386 15.2239 2 15.5 2H22.5C22.7761 2 23 2.22386 23 2.5V9.5C23 9.77614 22.7761 10 22.5 10H21.5C21.2239 10 21 9.77614 21 9.5V5.65142C21 5.56233 20.8923 5.51771 20.8293 5.58071L16.17 10.24C16.6219 10.9224 16.8994 11.7054 16.9781 12.5201C17.0568 13.3348 16.9343 14.1564 16.6213 14.9127C16.3083 15.669 15.8144 16.3369 15.183 16.8578C14.5516 17.3786 13.802 17.7365 13 17.9V19.9C13 19.9552 13.0448 20 13.1 20H14.5C14.7761 20 15 20.2239 15 20.5V21.5C15 21.7761 14.7761 22 14.5 22H13.1C13.0448 22 13 22.0448 13 22.1V23.5C13 23.7761 12.7761 24 12.5 24H11.5C11.2239 24 11 23.7761 11 23.5V22.1C11 22.0448 10.9552 22 10.9 22H9.5C9.22386 22 9 21.7761 9 21.5V20.5C9 20.2239 9.22386 20 9.5 20H10.9C10.9552 20 11 19.9552 11 19.9V17.9C10.2002 17.7365 9.45268 17.3797 8.8226 16.8607C8.19253 16.3417 7.6991 15.6763 7.38542 14.9227C7.07174 14.1691 6.94734 13.3501 7.0231 12.5373C7.09885 11.7245 7.37245 10.9427 7.82 10.26L6.71046 9.14105C6.67155 9.10182 6.6082 9.10157 6.56899 9.1405L5.5948 10.1077C5.39885 10.3023 5.08228 10.3012 4.88772 10.1052L4.18232 9.39482C3.98774 9.19886 3.98887 8.88227 4.18484 8.6877L5.15878 7.72071C5.19807 7.6817 5.19819 7.61819 5.15904 7.57904L3.17071 5.59071C3.10771 5.52771 3 5.57233 3 5.66142V8.5C3 8.77614 2.77614 9 2.5 9H1.5C1.22386 9 1 8.77614 1 8.5V2.5C1 2.22386 1.22386 2 1.5 2H7.5C7.77614 2 8 2.22386 8 2.5V3.5C8 3.77614 7.77614 4 7.5 4H4.65066C4.56168 4 4.51701 4.10749 4.57979 4.17055L6.56954 6.16922C6.60847 6.20832 6.67171 6.20851 6.71087 6.16962L7.72645 5.16109C7.92191 4.96699 8.23754 4.96754 8.43232 5.16232L9.14521 5.87521C9.34096 6.07096 9.3404 6.38849 9.14398 6.58355L8.1309 7.58959C8.09174 7.62849 8.09149 7.69176 8.13036 7.73096L9.23 8.84C10 8.31 11 8 12 8C13 8 13.96 8.3 14.75 8.83L19.4093 4.17071ZM12 10C11.2044 10 10.4413 10.3161 9.87868 10.8787C9.31607 11.4413 9 12.2044 9 13C9 13.7956 9.31607 14.5587 9.87868 15.1213C10.4413 15.6839 11.2044 16 12 16C12.7956 16 13.5587 15.6839 14.1213 15.1213C14.6839 14.5587 15 13.7956 15 13C15 12.2044 14.6839 11.4413 14.1213 10.8787C13.5587 10.3161 12.7956 10 12 10Z" fill="#7B7B7B"/>
</svg>
