<svg width="24" height="24" viewBox="0 0 24 24" fill="none" xmlns="http://www.w3.org/2000/svg">
<path fill-rule="evenodd" clip-rule="evenodd" d="M19.6471 10.061V19.0588C19.6471 20.6832 18.3302 22 16.7059 22H14.3445C14.0196 22 13.7562 21.7366 13.7562 21.4118V18.4969C13.7562 17.8361 13.2282 17.3027 12.5798 17.3027H11.4118C10.7633 17.3027 10.2353 17.8361 10.2353 18.4969V21.4118C10.2353 21.7366 9.97193 22 9.64706 22H7.29412C5.66976 22 4.35295 20.6832 4.35295 19.0588V10.061L2.9756 11.2662C2.73111 11.4802 2.35948 11.4554 2.14555 11.2109C1.93162 10.9664 1.9564 10.5948 2.20089 10.3808L11.6126 2.14554C11.8344 1.95149 12.1656 1.95149 12.3874 2.14554L21.7991 10.3808C22.0436 10.5948 22.0684 10.9664 21.8544 11.2109C21.6405 11.4554 21.2689 11.4802 21.0244 11.2662L19.6471 10.061Z" fill="#7B7B7B"/>
</svg>
