<svg width="24" height="24" viewBox="0 0 24 24" fill="none" xmlns="http://www.w3.org/2000/svg">
<path fill-rule="evenodd" clip-rule="evenodd" d="M4 17.6022V6.8C4 5.2536 5.2536 4 6.8 4H18C19.5464 4 20.8 5.2536 20.8 6.8V14.6917L16.2125 10.5023C16.0474 10.3541 15.7932 10.3686 15.646 10.5347L12.2498 14.3664L10.1902 12.1303C10.0379 11.9634 9.77761 11.9558 9.61574 12.1135L4 17.6022ZM9.6 9.6C10.4837 9.6 11.2 8.88366 11.2 8C11.2 7.11634 10.4837 6.4 9.6 6.4C8.71634 6.4 8 7.11634 8 8C8 8.88366 8.71634 9.6 9.6 9.6ZM9.87803 12.9748L4.0752 18.6473C4.36732 19.8816 5.47641 20.8 6.8 20.8H17.0876L9.87803 12.9748ZM12.7946 14.9579L18.1707 20.7949C19.6376 20.7067 20.8 19.4891 20.8 18V15.7749L15.9777 11.3666L12.7946 14.9579ZM8.8 8C8.8 8.44183 9.15817 8.8 9.6 8.8C10.0418 8.8 10.4 8.44183 10.4 8C10.4 7.55817 10.0418 7.2 9.6 7.2C9.15817 7.2 8.8 7.55817 8.8 8Z" fill="#7B7B7B"/>
</svg>
