<svg width="24" height="24" viewBox="0 0 24 24" fill="none" xmlns="http://www.w3.org/2000/svg">
<path fill-rule="evenodd" clip-rule="evenodd" d="M16.3196 6.24135C16.3196 3.85469 14.3854 1.91992 11.9996 1.91992C9.6137 1.91992 7.67957 3.85469 7.67957 6.24135V11.0429C7.67957 13.4296 9.6137 15.3644 11.9996 15.3644C14.3854 15.3644 16.3196 13.4296 16.3196 11.0429V6.24135ZM12.0491 22.9999C12.4767 22.9999 12.8233 22.6505 12.8233 22.2196V18.8026C16.8747 18.3853 20 14.9335 20 10.7803C20 10.3493 19.6534 9.99991 19.2258 9.99991C18.7982 9.99991 18.4516 10.3493 18.4516 10.7803C18.4516 14.326 15.6341 17.2167 12.1232 17.2829C12.1283 17.2799 12.0888 17.2768 12.0491 17.2768C12.0059 17.2768 11.9631 17.2804 11.9209 17.2875C8.41653 17.2649 5.54839 14.359 5.54839 10.7803C5.54839 10.3493 5.20179 9.99991 4.77419 9.99991C4.3466 9.99991 4 10.3493 4 10.7803C4 14.9706 7.17975 18.4415 11.275 18.8121V22.2196C11.275 22.6505 11.6215 22.9999 12.0491 22.9999Z" fill="#7B7B7B"/>
</svg>
