<svg width="16" height="16" viewBox="0 0 16 16" fill="none" xmlns="http://www.w3.org/2000/svg">
<path fill-rule="evenodd" clip-rule="evenodd" d="M5.95603 11.0438C6.28122 11.369 6.80829 11.3693 7.13379 11.0446L7.13401 11.0444L7.13454 11.0438L10.9058 7.27261L12.32 5.8584C13.1661 5.01226 13.1661 3.64041 12.32 2.79427C11.4739 1.94813 10.102 1.94813 9.25586 2.79427L4.07041 7.97972C4.07016 7.97998 4.0699 7.98024 4.06964 7.98049C2.70358 9.34739 2.70384 11.5629 4.07041 12.9295C5.43725 14.2963 7.65333 14.2963 9.02016 12.9295L13.2628 8.68683C13.4581 8.49156 13.7746 8.49156 13.9699 8.68683C14.1652 8.88209 14.1652 9.19867 13.9699 9.39393L9.72727 13.6366C7.96991 15.3939 5.12067 15.3939 3.36331 13.6366C1.61755 11.8908 1.60602 9.06754 3.32874 7.30756L3.32855 7.30737L3.36331 7.27261L8.54876 2.08716C9.78542 0.850503 11.7904 0.850503 13.0271 2.08716C14.2638 3.32382 14.2638 5.32885 13.0271 6.56551L11.6129 7.97972L7.84165 11.751L7.80689 11.7857L7.80644 11.7853C7.08812 12.4667 5.95326 12.4553 5.24893 11.751C4.53296 11.035 4.53296 9.87419 5.24893 9.15823L10.4344 3.97278C10.6296 3.77752 10.9462 3.77752 11.1415 3.97278C11.3367 4.16804 11.3367 4.48463 11.1415 4.67989L5.95603 9.86534C5.6306 10.1908 5.6306 10.7184 5.95603 11.0438Z" fill="#7B7B7B"/>
</svg>
