<svg width="24" height="24" viewBox="0 0 24 24" fill="none" xmlns="http://www.w3.org/2000/svg">
<path fill-rule="evenodd" clip-rule="evenodd" d="M2 12C2 17.5228 6.47715 22 12 22C17.5228 22 22 17.5228 22 12C22 6.47715 17.5228 2 12 2C6.47715 2 2 6.47715 2 12ZM7.5 8.5C7.5 7.94772 7.94772 7.5 8.5 7.5H9.5C10.0523 7.5 10.5 7.94772 10.5 8.5V15.5C10.5 16.0523 10.0523 16.5 9.5 16.5H8.5C7.94772 16.5 7.5 16.0523 7.5 15.5V8.5ZM13.5 8.5C13.5 7.94772 13.9477 7.5 14.5 7.5H15.5C16.0523 7.5 16.5 7.94772 16.5 8.5V15.5C16.5 16.0523 16.0523 16.5 15.5 16.5H14.5C13.9477 16.5 13.5 16.0523 13.5 15.5V8.5Z" fill="#7B7B7B"/>
</svg>
