<svg width="24" height="24" viewBox="0 0 24 24" fill="none" xmlns="http://www.w3.org/2000/svg">
<path fill-rule="evenodd" clip-rule="evenodd" d="M7.26923 7.82353C7.26923 5.15957 9.38727 3 12 3C14.6127 3 16.7308 5.15957 16.7308 7.82353C16.7308 9.49625 15.8957 10.9701 14.6274 11.8353C17.4737 12.9209 19.5 15.7192 19.5 19C19.5 20.1046 18.6046 21 17.5 21H6.5C5.39543 21 4.5 20.1046 4.5 19C4.5 15.7192 6.52635 12.9209 9.37257 11.8353C8.1043 10.9701 7.26923 9.49625 7.26923 7.82353ZM11.9995 10.5294C13.4652 10.5294 14.6534 9.31798 14.6534 7.82356C14.6534 6.32914 13.4652 5.11768 11.9995 5.11768C10.5339 5.11768 9.3457 6.32914 9.3457 7.82356C9.3457 9.31798 10.5339 10.5294 11.9995 10.5294ZM12 13.4706C9.1109 13.4706 6.74947 15.7741 6.58596 18.6781C6.57966 18.7899 6.6702 18.8824 6.78226 18.8824H17.2177C17.3298 18.8824 17.4203 18.7899 17.414 18.6781C17.2505 15.7741 14.8891 13.4706 12 13.4706Z" fill="#7B7B7B"/>
</svg>
