<svg width="24" height="24" viewBox="0 0 24 24" fill="none" xmlns="http://www.w3.org/2000/svg">
<path fill-rule="evenodd" clip-rule="evenodd" d="M12 11.875C9.92893 11.875 8.25 10.1961 8.25 8.125C8.25 6.05393 9.92893 4.375 12 4.375C14.0711 4.375 15.75 6.05393 15.75 8.125C15.75 10.1961 14.0711 11.875 12 11.875ZM17 15.7639V15.625C17 13.5539 15.3211 11.875 13.25 11.875H12H10.75C8.67893 11.875 7 13.5539 7 15.625V15.7639C6.46924 15.2889 5.76835 15 5 15H4C5.65685 15 7 13.6569 7 12C7 10.3431 5.65685 9 4 9C2.34315 9 1 10.3431 1 12C1 13.6569 2.34315 15 4 15H3C1.34315 15 0 16.3431 0 18V19C0 20.6569 1.34315 22 3 22H5C6.52252 22 7.78013 20.8658 7.97406 19.3963C8.66004 20.1511 9.64968 20.625 10.75 20.625H13.25C14.3503 20.625 15.34 20.1511 16.0259 19.3963C16.2199 20.8658 17.4775 22 19 22H21C22.6569 22 24 20.6569 24 19V18C24 16.3431 22.6569 15 21 15H20C21.6569 15 23 13.6569 23 12C23 10.3431 21.6569 9 20 9C18.3431 9 17 10.3431 17 12C17 13.6569 18.3431 15 20 15H19C18.2316 15 17.5308 15.2889 17 15.7639Z" fill="#7B7B7B"/>
</svg>
