<svg width="20" height="20" viewBox="0 0 20 20" fill="none" xmlns="http://www.w3.org/2000/svg">
<path fill-rule="evenodd" clip-rule="evenodd" d="M3.78788 7.48559C3.78788 6.41435 4.65278 5.54594 5.7197 5.54594H12.7976L11.3244 7.02901C11.0732 7.28183 11.0738 7.6912 11.3256 7.94337C11.5774 8.19553 11.9851 8.195 12.2362 7.94218L14.7636 5.39795C14.902 5.29778 15 5.10658 15 4.89518C15.0013 4.72549 14.9347 4.55893 14.8108 4.43487L12.235 1.8554C11.9832 1.60324 11.5755 1.60377 11.3244 1.85659C11.0732 2.10942 11.0738 2.51879 11.3256 2.77095L12.8053 4.25283H5.7197C3.94151 4.25283 2.5 5.70019 2.5 7.48559V11.0201C2.5 11.3772 2.7883 11.6666 3.14394 11.6666C3.49958 11.6666 3.78788 11.3772 3.78788 11.0201V7.48559ZM14.2803 14.454H7.20075L8.67537 12.9712C8.92666 12.7185 8.92635 12.3091 8.67469 12.0568C8.42303 11.8045 8.01531 11.8048 7.76402 12.0575L5.2244 14.6112C5.09046 14.7169 5 14.9015 5.00001 15.103C4.99925 15.2728 5.06575 15.4384 5.18895 15.5619L7.76471 18.1443C8.01637 18.3966 8.42409 18.3963 8.67537 18.1436C8.92666 17.8909 8.92635 17.4815 8.67469 17.2292L7.19634 15.7471H14.2803C16.0585 15.7471 17.5 14.2997 17.5 12.5143V8.97984C17.5 8.62276 17.2117 8.33329 16.8561 8.33329C16.5004 8.33329 16.2121 8.62276 16.2121 8.97984V12.5143C16.2121 13.5856 15.3472 14.454 14.2803 14.454Z" fill="white"/>
</svg>
