<svg width="24" height="24" viewBox="0 0 24 24" fill="none" xmlns="http://www.w3.org/2000/svg">
<path fill-rule="evenodd" clip-rule="evenodd" d="M19.1434 7.42843C19.6168 7.42843 20.0006 7.81219 20.0006 8.28557C20.0006 8.75896 19.6168 9.14272 19.1434 9.14272H18.0006C16.2648 9.14272 14.8577 7.73561 14.8577 5.99986V4.857C14.8577 4.38362 15.2415 3.99986 15.7148 3.99986C16.1882 3.99986 16.572 4.38362 16.572 4.857V5.99986C16.572 6.78884 17.2116 7.42843 18.0006 7.42843H19.1434Z" fill="#7B7B7B"/>
<path fill-rule="evenodd" clip-rule="evenodd" d="M16.572 19.1428C16.572 19.6161 16.1882 19.9999 15.7148 19.9999C15.2415 19.9999 14.8577 19.6161 14.8577 19.1428L14.8577 17.9999C14.8577 16.2641 16.2648 14.857 18.0006 14.857H19.1434C19.6168 14.857 20.0006 15.2408 20.0006 15.7142C20.0006 16.1876 19.6168 16.5713 19.1434 16.5713H18.0006C17.2116 16.5713 16.572 17.2109 16.572 17.9999V19.1428Z" fill="#7B7B7B"/>
<path fill-rule="evenodd" clip-rule="evenodd" d="M4.85812 16.5713C4.38473 16.5713 4.00098 16.1876 4.00098 15.7142C4.00098 15.2408 4.38473 14.857 4.85812 14.857H5.99051C7.72627 14.857 9.13337 16.2641 9.13337 17.9999V19.1427C9.13337 19.6161 8.74962 19.9999 8.27623 19.9999C7.80284 19.9999 7.41909 19.6161 7.41909 19.1428V17.9999C7.41909 17.2109 6.77949 16.5713 5.99051 16.5713L4.85812 16.5713Z" fill="#7B7B7B"/>
<path fill-rule="evenodd" clip-rule="evenodd" d="M7.40011 4.8569C7.40011 4.38351 7.78387 3.99976 8.25725 3.99976C8.73064 3.99976 9.1144 4.38351 9.1144 4.8569L9.1144 5.93921C9.1144 7.67496 7.70729 9.08207 5.97154 9.08207L4.85714 9.08207C4.38376 9.08207 4 8.69831 4 8.22492C4 7.75154 4.38376 7.36778 4.85714 7.36778L5.97154 7.36778C6.76052 7.36778 7.40011 6.72819 7.40011 5.93921L7.40011 4.8569Z" fill="#7B7B7B"/>
</svg>
