<svg width="17" height="18" viewBox="0 0 17 18" fill="none" xmlns="http://www.w3.org/2000/svg">
<path fill-rule="evenodd" clip-rule="evenodd" d="M12.5476 1.38079C12.5476 1.77528 12.8674 2.09508 13.2619 2.09508H14.2143C14.8718 2.09508 15.4047 2.62807 15.4047 3.28555V4.23793C15.4047 4.63242 15.7245 4.95222 16.119 4.95222C16.5135 4.95222 16.8333 4.63242 16.8333 4.23793V3.28555C16.8333 1.83909 15.6607 0.666504 14.2143 0.666504H13.2619C12.8674 0.666504 12.5476 0.986301 12.5476 1.38079ZM16.119 13.0475C15.7245 13.0475 15.4047 13.3673 15.4047 13.7617V14.7141C15.4047 15.3716 14.8718 15.9046 14.2143 15.9046H13.2619C12.8674 15.9046 12.5476 16.2244 12.5476 16.6189C12.5476 17.0134 12.8674 17.3332 13.2619 17.3332H14.2143C15.6607 17.3332 16.8333 16.1606 16.8333 14.7141V13.7617C16.8333 13.3673 16.5135 13.0475 16.119 13.0475ZM3.72937 15.9046C4.12385 15.9046 4.44365 16.2244 4.44365 16.6189C4.44365 17.0134 4.12385 17.3332 3.72937 17.3332H2.7857C1.33924 17.3332 0.166656 16.1606 0.166656 14.7141V13.7617C0.166656 13.3673 0.486453 13.0475 0.880942 13.0475C1.27543 13.0475 1.59523 13.3673 1.59523 13.7617V14.7141C1.59523 15.3716 2.12822 15.9046 2.7857 15.9046H3.72937ZM0.880942 4.90176C1.27543 4.90176 1.59523 4.58197 1.59523 4.18748V3.28555C1.59523 2.62807 2.12822 2.09508 2.7857 2.09508H3.71437C4.10886 2.09508 4.42865 1.77528 4.42865 1.38079C4.42865 0.986301 4.10886 0.666504 3.71437 0.666504H2.7857C1.33924 0.666504 0.166656 1.83909 0.166656 3.28555V4.18748C0.166656 4.58197 0.486453 4.90176 0.880942 4.90176Z" fill="#7B7B7B"/>
</svg>
