<svg width="24" height="24" viewBox="0 0 24 24" fill="none" xmlns="http://www.w3.org/2000/svg">
<path fill-rule="evenodd" clip-rule="evenodd" d="M5.82278 11.7419V21.1818H18.1772V11.7419H5.82278ZM7.0256 9.90996V9.92373H5.45667C4.64504 9.92373 4 10.5896 4 11.3957V21.528C4 22.3341 4.64504 23 5.45667 23H18.5433C19.355 23 20 22.3341 20 21.528V11.3957C20 10.5896 19.355 9.92373 18.5433 9.92373H17.1154V6.09416C17.1154 3.28375 14.8598 1 12.0705 1C9.28121 1 7.0256 3.28375 7.0256 6.09416V7H8.84863V6.09422C8.84863 4.28193 10.2943 2.81824 12.0708 2.81824C13.8472 2.81824 15.2929 4.28193 15.2929 6.09422V9.89577L7.0256 9.90996Z" fill="#7B7B7B"/>
</svg>
