<svg width="24" height="24" viewBox="0 0 24 24" fill="none" xmlns="http://www.w3.org/2000/svg">
<path fill-rule="evenodd" clip-rule="evenodd" d="M12 1C10.5958 1 9.38357 1.97584 9.09429 3.33907L9.03826 3.60311C8.51431 3.78559 8.00551 4.01726 7.51725 4.29693C7.02899 4.5766 6.57236 4.89792 6.1511 5.25686L5.8926 5.17298C4.55798 4.73991 3.10004 5.29353 2.39794 6.5C1.69584 7.70647 1.94155 9.23593 2.98689 10.1661L3.19048 10.3472C2.98202 11.4383 2.98002 12.5601 3.18874 13.6543L2.98689 13.8339C1.94155 14.7641 1.69584 16.2935 2.39794 17.5C3.10004 18.7065 4.55798 19.2601 5.8926 18.827L6.1503 18.7434C7.00107 19.4698 7.98129 20.029 9.03795 20.3954L9.09429 20.6609C9.38357 22.0242 10.5958 23 12 23C13.4042 23 14.6164 22.0242 14.9057 20.6609L14.9617 20.3969C15.4857 20.2144 15.9945 19.9827 16.4827 19.7031C16.971 19.4234 17.4276 19.1021 17.8489 18.7431L18.1074 18.827C19.442 19.2601 20.9 18.7065 21.6021 17.5C22.3042 16.2935 22.0585 14.7641 21.0131 13.8339L20.8095 13.6528C21.018 12.5617 21.02 11.4399 20.8113 10.3457L21.0131 10.1661C22.0585 9.23593 22.3042 7.70647 21.6021 6.5C20.9 5.29353 19.442 4.73991 18.1074 5.17298L17.8497 5.2566C16.9989 4.53018 16.0187 3.97101 14.962 3.60457L14.9057 3.33907C14.6164 1.97584 13.4042 1 12 1ZM12 15.6316C14.0216 15.6316 15.6605 14.0057 15.6605 12C15.6605 9.99434 14.0216 8.36842 12 8.36842C9.97838 8.36842 8.33953 9.99434 8.33953 12C8.33953 14.0057 9.97838 15.6316 12 15.6316ZM12 13.6316C11.0917 13.6316 10.3554 12.9011 10.3554 12C10.3554 11.0989 11.0917 10.3684 12 10.3684C12.9083 10.3684 13.6446 11.0989 13.6446 12C13.6446 12.9011 12.9083 13.6316 12 13.6316Z" fill="#7B7B7B"/>
</svg>
