<svg width="25" height="24" viewBox="0 0 25 24" fill="none" xmlns="http://www.w3.org/2000/svg">
<path fill-rule="evenodd" clip-rule="evenodd" d="M13.9394 6.69632C13.9394 5.02273 15.2961 3.66602 16.9697 3.66602C18.6433 3.66602 20 5.02273 20 6.69632C20 8.36991 18.6433 9.72662 16.9697 9.72662C15.9353 9.72662 15.0219 9.2083 14.4751 8.4172L9.21835 10.9797C9.33217 11.2983 9.39416 11.6416 9.39416 11.9993C9.39416 12.3324 9.34044 12.6528 9.2412 12.9526L14.4678 15.5921C15.0138 14.795 15.9307 14.2721 16.9697 14.2721C18.6433 14.2721 20 15.6288 20 17.3024C20 18.976 18.6433 20.3327 16.9697 20.3327C15.2961 20.3327 13.9394 18.976 13.9394 17.3024C13.9394 17.2102 13.9435 17.1189 13.9516 17.0288L8.41306 14.2317C7.8736 14.7272 7.15405 15.0296 6.36386 15.0296C4.69027 15.0296 3.33355 13.6729 3.33355 11.9993C3.33355 10.3257 4.69027 8.96904 6.36386 8.96904C7.12604 8.96904 7.8225 9.25043 8.35502 9.71499L13.9531 6.98609C13.944 6.89072 13.9394 6.79406 13.9394 6.69632ZM18.4848 6.69632C18.4848 5.85952 17.8065 5.18117 16.9697 5.18117C16.1329 5.18117 15.4545 5.85952 15.4545 6.69632C15.4545 7.53311 16.1329 8.21147 16.9697 8.21147C17.8065 8.21147 18.4848 7.53311 18.4848 6.69632ZM18.4848 17.3024C18.4848 16.4656 17.8065 15.7872 16.9697 15.7872C16.1329 15.7872 15.4545 16.4656 15.4545 17.3024C15.4545 18.1392 16.1329 18.8175 16.9697 18.8175C17.8065 18.8175 18.4848 18.1392 18.4848 17.3024ZM6.36386 10.4842C7.20065 10.4842 7.87901 11.1625 7.87901 11.9993C7.87901 12.8361 7.20065 13.5145 6.36386 13.5145C5.52706 13.5145 4.84871 12.8361 4.84871 11.9993C4.84871 11.1625 5.52706 10.4842 6.36386 10.4842Z" fill="#7B7B7B"/>
</svg>
