<svg width="24" height="24" viewBox="0 0 24 24" fill="none" xmlns="http://www.w3.org/2000/svg">
<path d="M12 1.875C9.99747 1.875 8.0399 2.46882 6.37485 3.58137C4.70981 4.69392 3.41206 6.27523 2.64572 8.12533C1.87939 9.97543 1.67888 12.0112 2.06955 13.9753C2.46023 15.9393 3.42454 17.7435 4.84055 19.1595C6.25655 20.5755 8.06066 21.5398 10.0247 21.9305C11.9888 22.3211 14.0246 22.1206 15.8747 21.3543C17.7248 20.5879 19.3061 19.2902 20.4186 17.6251C21.5312 15.9601 22.125 14.0025 22.125 12C22.122 9.31561 21.0543 6.74204 19.1561 4.84389C17.258 2.94574 14.6844 1.87803 12 1.875V1.875ZM12 19.875C10.4425 19.875 8.91992 19.4131 7.62489 18.5478C6.32985 17.6825 5.32049 16.4526 4.72445 15.0136C4.12841 13.5747 3.97246 11.9913 4.27632 10.4637C4.58018 8.93606 5.3302 7.53287 6.43154 6.43153C7.53288 5.3302 8.93607 4.58017 10.4637 4.27632C11.9913 3.97246 13.5747 4.12841 15.0136 4.72445C16.4526 5.32049 17.6825 6.32985 18.5478 7.62488C19.4131 8.91992 19.875 10.4425 19.875 12C19.8726 14.0879 19.0422 16.0895 17.5659 17.5659C16.0895 19.0422 14.0879 19.8726 12 19.875V19.875ZM7.125 10.125C7.125 9.82833 7.21298 9.53832 7.3778 9.29164C7.54262 9.04497 7.77689 8.85271 8.05098 8.73918C8.32507 8.62565 8.62667 8.59594 8.91764 8.65382C9.20861 8.7117 9.47588 8.85456 9.68566 9.06434C9.89544 9.27412 10.0383 9.54139 10.0962 9.83236C10.1541 10.1233 10.1244 10.4249 10.0108 10.699C9.89729 10.9731 9.70503 11.2074 9.45836 11.3722C9.21168 11.537 8.92167 11.625 8.625 11.625C8.22718 11.625 7.84565 11.467 7.56434 11.1857C7.28304 10.9044 7.125 10.5228 7.125 10.125ZM17.625 10.125C17.625 10.4234 17.5065 10.7095 17.2955 10.9205C17.0845 11.1315 16.7984 11.25 16.5 11.25H14.25C13.9516 11.25 13.6655 11.1315 13.4545 10.9205C13.2435 10.7095 13.125 10.4234 13.125 10.125C13.125 9.82663 13.2435 9.54048 13.4545 9.3295C13.6655 9.11853 13.9516 9 14.25 9H16.5C16.7984 9 17.0845 9.11853 17.2955 9.3295C17.5065 9.54048 17.625 9.82663 17.625 10.125ZM16.872 14.8131C16.3781 15.6681 15.6678 16.378 14.8127 16.8716C13.9575 17.3652 12.9875 17.625 12 17.625C11.0126 17.625 10.0426 17.3652 9.18744 16.8716C8.33226 16.378 7.62202 15.6681 7.1281 14.8131C7.05323 14.6851 7.00438 14.5437 6.98435 14.3968C6.96433 14.25 6.97352 14.1006 7.01141 13.9573C7.04929 13.814 7.11512 13.6796 7.20511 13.5618C7.2951 13.444 7.40748 13.3452 7.53578 13.271C7.66409 13.1968 7.80579 13.1486 7.95276 13.1294C8.09972 13.1101 8.24905 13.1201 8.39215 13.1587C8.53525 13.1973 8.66931 13.2638 8.78663 13.3544C8.90394 13.445 9.0022 13.5579 9.07575 13.6866C9.37209 14.1999 9.79834 14.6262 10.3117 14.9226C10.825 15.219 11.4073 15.375 12 15.375C12.5927 15.375 13.175 15.219 13.6884 14.9226C14.2017 14.6262 14.6279 14.1999 14.9243 13.6866C15.0736 13.4283 15.3195 13.2399 15.6078 13.1629C15.896 13.0859 16.2031 13.1266 16.4614 13.2759C16.7197 13.4253 16.908 13.6712 16.985 13.9595C17.062 14.2477 17.0214 14.5548 16.872 14.8131V14.8131Z" fill="#7B7B7B"/>
</svg>
