<svg width="24" height="24" viewBox="0 0 24 24" fill="none" xmlns="http://www.w3.org/2000/svg">
<path d="M7.125 10.125C7.125 9.82833 7.21298 9.53832 7.3778 9.29164C7.54262 9.04497 7.77689 8.85271 8.05098 8.73918C8.32507 8.62565 8.62667 8.59594 8.91764 8.65382C9.20861 8.7117 9.47588 8.85456 9.68566 9.06434C9.89544 9.27412 10.0383 9.54139 10.0962 9.83236C10.1541 10.1233 10.1244 10.4249 10.0108 10.699C9.89729 10.9731 9.70503 11.2074 9.45836 11.3722C9.21168 11.537 8.92167 11.625 8.625 11.625C8.22718 11.625 7.84565 11.467 7.56434 11.1857C7.28304 10.9044 7.125 10.5228 7.125 10.125ZM15.375 8.625C15.0783 8.625 14.7883 8.71297 14.5416 8.8778C14.295 9.04262 14.1027 9.27689 13.9892 9.55098C13.8757 9.82506 13.8459 10.1267 13.9038 10.4176C13.9617 10.7086 14.1046 10.9759 14.3143 11.1857C14.5241 11.3954 14.7914 11.5383 15.0824 11.5962C15.3733 11.6541 15.6749 11.6244 15.949 11.5108C16.2231 11.3973 16.4574 11.205 16.6222 10.9584C16.787 10.7117 16.875 10.4217 16.875 10.125C16.875 9.72718 16.717 9.34564 16.4357 9.06434C16.1544 8.78304 15.7728 8.625 15.375 8.625ZM22.125 12C22.125 14.0025 21.5312 15.9601 20.4186 17.6251C19.3061 19.2902 17.7248 20.5879 15.8747 21.3543C14.0246 22.1206 11.9888 22.3211 10.0247 21.9305C8.06066 21.5398 6.25655 20.5755 4.84055 19.1595C3.42454 17.7435 2.46023 15.9393 2.06955 13.9753C1.67888 12.0112 1.87939 9.97543 2.64572 8.12533C3.41206 6.27523 4.70981 4.69392 6.37485 3.58137C8.0399 2.46882 9.99747 1.875 12 1.875C14.6844 1.87803 17.258 2.94574 19.1561 4.84389C21.0543 6.74204 22.122 9.31561 22.125 12V12ZM19.875 12C19.875 10.4425 19.4131 8.91992 18.5478 7.62488C17.6825 6.32985 16.4526 5.32049 15.0136 4.72445C13.5747 4.12841 11.9913 3.97246 10.4637 4.27632C8.93607 4.58017 7.53288 5.3302 6.43154 6.43153C5.3302 7.53287 4.58018 8.93606 4.27632 10.4637C3.97246 11.9913 4.12841 13.5747 4.72445 15.0136C5.32049 16.4526 6.32985 17.6825 7.62489 18.5478C8.91992 19.4131 10.4425 19.875 12 19.875C14.0879 19.8726 16.0895 19.0422 17.5659 17.5659C19.0422 16.0895 19.8726 14.0879 19.875 12ZM15.75 13.875H8.25C7.95163 13.875 7.66549 13.9935 7.45451 14.2045C7.24353 14.4155 7.125 14.7016 7.125 15C7.125 15.2984 7.24353 15.5845 7.45451 15.7955C7.66549 16.0065 7.95163 16.125 8.25 16.125H15.75C16.0484 16.125 16.3345 16.0065 16.5455 15.7955C16.7565 15.5845 16.875 15.2984 16.875 15C16.875 14.7016 16.7565 14.4155 16.5455 14.2045C16.3345 13.9935 16.0484 13.875 15.75 13.875Z" fill="#7B7B7B"/>
</svg>
