<svg width="24" height="24" viewBox="0 0 24 24" fill="none" xmlns="http://www.w3.org/2000/svg">
<path d="M12 1.875C9.99747 1.875 8.0399 2.46882 6.37485 3.58137C4.70981 4.69392 3.41206 6.27523 2.64572 8.12533C1.87939 9.97543 1.67888 12.0112 2.06955 13.9753C2.46023 15.9393 3.42454 17.7435 4.84055 19.1595C6.25655 20.5755 8.06066 21.5398 10.0247 21.9305C11.9888 22.3211 14.0246 22.1206 15.8747 21.3543C17.7248 20.5879 19.3061 19.2902 20.4186 17.6251C21.5312 15.9601 22.125 14.0025 22.125 12C22.122 9.31561 21.0543 6.74204 19.1561 4.84389C17.258 2.94574 14.6844 1.87803 12 1.875V1.875ZM12 19.875C10.4425 19.875 8.91992 19.4131 7.62489 18.5478C6.32985 17.6825 5.32049 16.4526 4.72445 15.0136C4.12841 13.5747 3.97246 11.9913 4.27632 10.4637C4.58018 8.93606 5.3302 7.53287 6.43154 6.43153C7.53288 5.3302 8.93607 4.58017 10.4637 4.27632C11.9913 3.97246 13.5747 4.12841 15.0136 4.72445C16.4526 5.32049 17.6825 6.32985 18.5478 7.62488C19.4131 8.91992 19.875 10.4425 19.875 12C19.8726 14.0879 19.0422 16.0895 17.5659 17.5659C16.0895 19.0422 14.0879 19.8726 12 19.875V19.875ZM7.125 10.125C7.125 9.82833 7.21298 9.53832 7.3778 9.29164C7.54262 9.04497 7.77689 8.85271 8.05098 8.73918C8.32507 8.62565 8.62667 8.59594 8.91764 8.65382C9.20861 8.7117 9.47588 8.85456 9.68566 9.06434C9.89544 9.27412 10.0383 9.54139 10.0962 9.83236C10.1541 10.1233 10.1244 10.4249 10.0108 10.699C9.89729 10.9731 9.70503 11.2074 9.45836 11.3722C9.21168 11.537 8.92167 11.625 8.625 11.625C8.22718 11.625 7.84565 11.467 7.56434 11.1857C7.28304 10.9044 7.125 10.5228 7.125 10.125ZM13.875 10.125C13.875 9.82833 13.963 9.53832 14.1278 9.29164C14.2926 9.04497 14.5269 8.85271 14.801 8.73918C15.0751 8.62565 15.3767 8.59594 15.6676 8.65382C15.9586 8.7117 16.2259 8.85456 16.4357 9.06434C16.6454 9.27412 16.7883 9.54139 16.8462 9.83236C16.9041 10.1233 16.8744 10.4249 16.7608 10.699C16.6473 10.9731 16.455 11.2074 16.2084 11.3722C15.9617 11.537 15.6717 11.625 15.375 11.625C14.9772 11.625 14.5956 11.467 14.3143 11.1857C14.033 10.9044 13.875 10.5228 13.875 10.125ZM16.872 14.813C16.3781 15.668 15.6678 16.3779 14.8127 16.8715C13.9575 17.3651 12.9875 17.6249 12 17.6249C11.0126 17.6249 10.0426 17.3651 9.18744 16.8715C8.33226 16.3779 7.62202 15.668 7.1281 14.813C6.98165 14.5549 6.94312 14.2493 7.02089 13.963C7.09867 13.6766 7.28645 13.4325 7.54335 13.2839C7.80024 13.1354 8.10543 13.0943 8.39245 13.1697C8.67947 13.2451 8.92507 13.4309 9.07575 13.6866C9.37209 14.1999 9.79834 14.6262 10.3117 14.9226C10.825 15.219 11.4073 15.375 12 15.375C12.5927 15.375 13.175 15.219 13.6884 14.9226C14.2017 14.6262 14.6279 14.1999 14.9243 13.6866C15.0736 13.4283 15.3195 13.2399 15.6077 13.1629C15.896 13.0859 16.203 13.1265 16.4613 13.2759C16.7196 13.4253 16.908 13.6711 16.985 13.9594C17.062 14.2476 17.0214 14.5547 16.872 14.813V14.813Z" fill="#7B7B7B"/>
</svg>
