<svg width="24" height="24" viewBox="0 0 24 24" fill="none" xmlns="http://www.w3.org/2000/svg">
<path d="M12 1.875C9.99747 1.875 8.0399 2.46882 6.37485 3.58137C4.70981 4.69392 3.41206 6.27523 2.64572 8.12533C1.87939 9.97543 1.67888 12.0112 2.06955 13.9753C2.46023 15.9393 3.42454 17.7435 4.84055 19.1595C6.25655 20.5755 8.06066 21.5398 10.0247 21.9305C11.9888 22.3211 14.0246 22.1206 15.8747 21.3543C17.7248 20.5879 19.3061 19.2902 20.4186 17.6251C21.5312 15.9601 22.125 14.0025 22.125 12C22.122 9.31561 21.0543 6.74204 19.1561 4.84389C17.258 2.94574 14.6844 1.87803 12 1.875V1.875ZM12 19.875C10.4425 19.875 8.91992 19.4131 7.62489 18.5478C6.32985 17.6825 5.32049 16.4526 4.72445 15.0136C4.12841 13.5747 3.97246 11.9913 4.27632 10.4637C4.58018 8.93606 5.3302 7.53287 6.43154 6.43153C7.53288 5.3302 8.93607 4.58017 10.4637 4.27632C11.9913 3.97246 13.5747 4.12841 15.0136 4.72445C16.4526 5.32049 17.6825 6.32985 18.5478 7.62488C19.4131 8.91992 19.875 10.4425 19.875 12C19.8726 14.0878 19.0422 16.0895 17.5658 17.5658C16.0895 19.0422 14.0879 19.8726 12 19.875ZM17.6705 11.2045C17.8786 11.4161 17.9947 11.7013 17.9935 11.9981C17.9923 12.2949 17.8739 12.5792 17.664 12.789C17.4542 12.9989 17.1699 13.1173 16.8731 13.1185C16.5763 13.1197 16.2911 13.0036 16.0795 12.7955L15.375 12.091L14.6705 12.7955C14.4589 13.0036 14.1737 13.1197 13.8769 13.1185C13.5801 13.1173 13.2958 12.9989 13.086 12.789C12.8761 12.5792 12.7577 12.2949 12.7565 11.9981C12.7553 11.7013 12.8714 11.4161 13.0795 11.2045L13.784 10.5L13.0795 9.79547C12.8714 9.58391 12.7553 9.29868 12.7565 9.0019C12.7577 8.70512 12.8761 8.42084 13.086 8.21098C13.2958 8.00113 13.5801 7.8827 13.8769 7.88149C14.1737 7.88028 14.4589 7.99639 14.6705 8.20453L15.375 8.90897L16.0795 8.20453C16.2911 7.99639 16.5763 7.88028 16.8731 7.88149C17.1699 7.8827 17.4542 8.00113 17.664 8.21098C17.8739 8.42084 17.9923 8.70512 17.9935 9.0019C17.9947 9.29868 17.8786 9.58391 17.6705 9.79547L16.966 10.5L17.6705 11.2045ZM10.9205 12.7955C10.7095 13.0064 10.4234 13.1249 10.125 13.1249C9.82665 13.1249 9.54051 13.0064 9.32953 12.7955L8.625 12.091L7.92047 12.7955C7.70891 13.0036 7.42368 13.1197 7.1269 13.1185C6.83012 13.1173 6.54584 12.9989 6.33599 12.789C6.12613 12.5792 6.0077 12.2949 6.00649 11.9981C6.00528 11.7013 6.12139 11.4161 6.32953 11.2045L7.03397 10.5L6.32953 9.79547C6.12139 9.58391 6.00528 9.29868 6.00649 9.0019C6.0077 8.70512 6.12613 8.42084 6.33599 8.21098C6.54584 8.00113 6.83012 7.8827 7.1269 7.88149C7.42368 7.88028 7.70891 7.99639 7.92047 8.20453L8.625 8.90897L9.32953 8.20453C9.54109 7.99639 9.82633 7.88028 10.1231 7.88149C10.4199 7.8827 10.7042 8.00113 10.914 8.21098C11.1239 8.42084 11.2423 8.70512 11.2435 9.0019C11.2447 9.29868 11.1286 9.58391 10.9205 9.79547L10.216 10.5L10.9205 11.2045C11.1314 11.4155 11.2499 11.7016 11.2499 12C11.2499 12.2984 11.1314 12.5845 10.9205 12.7955V12.7955ZM13.5 16.875C13.5 17.1717 13.412 17.4617 13.2472 17.7084C13.0824 17.955 12.8481 18.1473 12.574 18.2608C12.2999 18.3744 11.9983 18.4041 11.7074 18.3462C11.4164 18.2883 11.1491 18.1454 10.9393 17.9357C10.7296 17.7259 10.5867 17.4586 10.5288 17.1676C10.4709 16.8767 10.5007 16.5751 10.6142 16.301C10.7277 16.0269 10.92 15.7926 11.1666 15.6278C11.4133 15.463 11.7033 15.375 12 15.375C12.3977 15.3754 12.779 15.5336 13.0602 15.8148C13.3414 16.096 13.4996 16.4773 13.5 16.875V16.875Z" fill="#7B7B7B"/>
</svg>
