<svg width="24" height="24" viewBox="0 0 24 24" fill="none" xmlns="http://www.w3.org/2000/svg">
<path d="M12 1.875C9.99747 1.875 8.0399 2.46882 6.37485 3.58137C4.70981 4.69392 3.41206 6.27523 2.64572 8.12533C1.87939 9.97543 1.67888 12.0112 2.06955 13.9753C2.46023 15.9393 3.42454 17.7435 4.84055 19.1595C6.25655 20.5755 8.06066 21.5398 10.0247 21.9305C11.9888 22.3211 14.0246 22.1206 15.8747 21.3543C17.7248 20.5879 19.3061 19.2902 20.4186 17.6251C21.5312 15.9601 22.125 14.0025 22.125 12C22.122 9.31561 21.0543 6.74204 19.1561 4.84389C17.258 2.94574 14.6844 1.87803 12 1.875V1.875ZM12 19.875C10.4425 19.875 8.91992 19.4131 7.62489 18.5478C6.32985 17.6825 5.32049 16.4526 4.72445 15.0136C4.12841 13.5747 3.97246 11.9913 4.27632 10.4637C4.58018 8.93606 5.3302 7.53287 6.43154 6.43153C7.53288 5.3302 8.93607 4.58017 10.4637 4.27632C11.9913 3.97246 13.5747 4.12841 15.0136 4.72445C16.4526 5.32049 17.6825 6.32985 18.5478 7.62488C19.4131 8.91992 19.875 10.4425 19.875 12C19.8726 14.0878 19.0422 16.0895 17.5658 17.5658C16.0895 19.0422 14.0879 19.8726 12 19.875ZM7.125 10.125C7.125 9.82833 7.21298 9.53832 7.3778 9.29164C7.54262 9.04497 7.77689 8.85271 8.05098 8.73918C8.32507 8.62565 8.62667 8.59594 8.91764 8.65382C9.20861 8.7117 9.47588 8.85456 9.68566 9.06434C9.89544 9.27412 10.0383 9.54139 10.0962 9.83236C10.1541 10.1233 10.1244 10.4249 10.0108 10.699C9.89729 10.9731 9.70503 11.2074 9.45836 11.3722C9.21168 11.537 8.92167 11.625 8.625 11.625C8.22718 11.625 7.84565 11.467 7.56434 11.1857C7.28304 10.9044 7.125 10.5228 7.125 10.125ZM16.875 10.125C16.875 10.4217 16.787 10.7117 16.6222 10.9584C16.4574 11.205 16.2231 11.3973 15.949 11.5108C15.6749 11.6244 15.3733 11.6541 15.0824 11.5962C14.7914 11.5383 14.5241 11.3954 14.3143 11.1857C14.1046 10.9759 13.9617 10.7086 13.9038 10.4176C13.8459 10.1267 13.8757 9.82506 13.9892 9.55098C14.1027 9.27689 14.295 9.04262 14.5416 8.8778C14.7883 8.71297 15.0783 8.625 15.375 8.625C15.7728 8.625 16.1544 8.78304 16.4357 9.06434C16.717 9.34564 16.875 9.72718 16.875 10.125ZM16.3677 15.205C16.4619 15.3196 16.5325 15.4516 16.5755 15.5936C16.6184 15.7355 16.6329 15.8845 16.6181 16.0321C16.6032 16.1796 16.5594 16.3228 16.489 16.4533C16.4186 16.5839 16.3232 16.6992 16.2081 16.7927C16.093 16.8862 15.9605 16.956 15.8183 16.9982C15.6761 17.0403 15.527 17.0539 15.3795 17.0382C15.2321 17.0225 15.0892 16.9778 14.9591 16.9066C14.8289 16.8355 14.7142 16.7393 14.6213 16.6237C14.3049 16.2335 13.9053 15.919 13.4518 15.7029C12.9983 15.4868 12.5023 15.3747 12 15.3747C11.4976 15.3747 11.0016 15.4869 10.5481 15.7029C10.0946 15.919 9.69511 16.2336 9.37866 16.6238C9.28551 16.7384 9.17069 16.8336 9.04075 16.9039C8.9108 16.9742 8.76829 17.0182 8.62133 17.0335C8.47438 17.0487 8.32587 17.0348 8.18428 16.9926C8.04269 16.9505 7.91079 16.8808 7.79611 16.7877C7.68144 16.6945 7.58623 16.5797 7.51593 16.4498C7.44563 16.3198 7.40162 16.1773 7.3864 16.0303C7.37117 15.8834 7.38505 15.7349 7.42722 15.5933C7.46939 15.4517 7.53904 15.3198 7.63219 15.2051C8.15961 14.5553 8.82539 14.0313 9.581 13.6714C10.3366 13.3115 11.163 13.1248 11.9999 13.1248C12.8369 13.1248 13.6633 13.3115 14.4189 13.6714C15.1745 14.0313 15.8403 14.5552 16.3677 15.205V15.205Z" fill="#7B7B7B"/>
</svg>
