<svg width="26" height="24" viewBox="0 0 26 24" fill="none" xmlns="http://www.w3.org/2000/svg">
<path fill-rule="evenodd" clip-rule="evenodd" d="M12.9995 19.6378L6.82775 22.8599C5.93937 23.3237 4.90446 22.5686 5.07503 21.5811L6.2518 14.7676L1.26535 9.94085C0.542796 9.24144 0.938944 8.01701 1.93425 7.87339L8.83234 6.87801L11.9157 0.673834C12.3608 -0.221682 13.6383 -0.221682 14.0833 0.673834L17.1667 6.87801L24.0648 7.87339C25.0601 8.01701 25.4563 9.24144 24.7337 9.94085L19.7472 14.7676L20.924 21.5811C21.0946 22.5686 20.0597 23.3237 19.1713 22.8599L12.9995 19.6378ZM12.4394 17.1996C12.7903 17.0164 13.2087 17.0164 13.5596 17.1996L18.1223 19.5817L17.2531 14.5491C17.185 14.1546 17.3163 13.7519 17.604 13.4735L21.2782 9.91691L16.1926 9.18307C15.7991 9.12629 15.4586 8.87986 15.2817 8.52384L12.9995 3.93186L10.7174 8.52384C10.5404 8.87986 10.1999 9.12629 9.80643 9.18307L4.72084 9.91691L8.39507 13.4735C8.68271 13.7519 8.81406 14.1546 8.74592 14.5491L7.87672 19.5817L12.4394 17.1996Z" fill="#7B7B7B"/>
</svg>
