<svg width="24" height="24" viewBox="0 0 24 24" fill="none" xmlns="http://www.w3.org/2000/svg">
<path fill-rule="evenodd" clip-rule="evenodd" d="M11.7428 3.0623L20.7341 8.00828L20.7721 8.03042C20.9093 8.11869 21 8.27179 21 8.44587V17.3331C20.9489 17.284 20.8969 17.2347 20.8439 17.1849L20.5 16.8622L20.1561 17.1849C20.1031 17.2347 20.0511 17.284 20 17.3331V9.28726L11.7428 13.8294C11.5918 13.9125 11.4082 13.9125 11.2572 13.8294L2.25718 8.87864C1.91427 8.69001 1.91427 8.20172 2.25718 8.01309L11.2572 3.0623C11.4082 2.97923 11.5918 2.97923 11.7428 3.0623ZM20.5 17C19.4921 18.0028 19 18.7821 19 19.2791C19 20.0994 19.6716 20.7643 20.5 20.7643C21.3284 20.7643 22 20.0994 22 19.2791C22 18.7821 21.5079 18.0028 20.5 17ZM17.9997 16.4771L18 11.9114L12.2285 15.0863C12.0018 15.2109 11.7507 15.2732 11.4997 15.2732C11.2488 15.2731 10.9979 15.2108 10.7715 15.0863L5 11.9114L4.99966 16.4771C4.99966 16.5976 5.04402 16.714 5.12444 16.8044C6.34593 18.1776 8.47908 18.8425 11.4997 18.8425C14.5202 18.8425 16.6534 18.1776 17.8749 16.8044C17.9553 16.714 17.9997 16.5976 17.9997 16.4771Z" fill="#7B7B7B"/>
</svg>
