<svg width="24" height="24" viewBox="0 0 24 24" fill="none" xmlns="http://www.w3.org/2000/svg">
<path d="M17.41 6.59L15.6044 5.77334C15.3692 5.66698 15.3692 5.33302 15.6044 5.22666L17.41 4.41L18.2267 2.60436C18.333 2.3692 18.667 2.3692 18.7733 2.60436L19.59 4.41L21.3956 5.22666C21.6308 5.33302 21.6308 5.66698 21.3956 5.77334L19.59 6.59L18.7733 8.39564C18.667 8.6308 18.333 8.6308 18.2267 8.39564L17.41 6.59ZM21.28 12.72L20.7732 11.6025C20.6667 11.3677 20.3333 11.3677 20.2268 11.6025L19.72 12.72L18.6025 13.2268C18.3677 13.3333 18.3677 13.6667 18.6025 13.7732L19.72 14.28L20.2268 15.3975C20.3333 15.6323 20.6667 15.6323 20.7732 15.3975L21.28 14.28L22.3975 13.7732C22.6323 13.6667 22.6323 13.3333 22.3975 13.2268L21.28 12.72Z" fill="#7B7B7B"/>
<path fill-rule="evenodd" clip-rule="evenodd" d="M8.72727 6C7.64221 6 6.70549 6.75406 6.48195 7.80746L6.43866 8.01149C6.03379 8.1525 5.64062 8.33152 5.26333 8.54763C4.88604 8.76374 4.53319 9.01203 4.20767 9.28939L4.00792 9.22457C2.97662 8.88993 1.85003 9.31773 1.3075 10.25C0.76497 11.1823 0.954834 12.3641 1.7626 13.0829L1.91992 13.2229C1.75883 14.066 1.75729 14.9328 1.91857 15.7783L1.7626 15.9171C0.954834 16.6359 0.76497 17.8177 1.3075 18.75C1.85003 19.6823 2.97662 20.1101 4.00792 19.7754L4.20705 19.7108C4.86446 20.2721 5.6219 20.7042 6.43842 20.9874L6.48195 21.1925C6.70549 22.2459 7.64221 23 8.72727 23C9.81233 23 10.7491 22.2459 10.9726 21.1925L11.0159 20.9885C11.4208 20.8475 11.8139 20.6685 12.1912 20.4524C12.5685 20.2363 12.9214 19.988 13.2469 19.7106L13.4466 19.7754C14.4779 20.1101 15.6045 19.6823 16.147 18.75C16.6896 17.8177 16.4997 16.6359 15.6919 15.9171L15.5346 15.7771C15.6957 14.934 15.6973 14.0672 15.536 13.2217L15.6919 13.0829C16.4997 12.3641 16.6896 11.1823 16.147 10.25C15.6045 9.31773 14.4779 8.88993 13.4466 9.22457L13.2475 9.28919C12.5901 8.72787 11.8326 8.29578 11.0161 8.01262L10.9726 7.80746C10.7491 6.75406 9.81233 6 8.72727 6ZM11.5556 14.5C11.5556 16.0499 10.2892 17.3063 8.72707 17.3063C7.16491 17.3063 5.89853 16.0499 5.89853 14.5C5.89853 12.9502 7.16491 11.6938 8.72707 11.6938C10.2892 11.6938 11.5556 12.9502 11.5556 14.5Z" fill="#7B7B7B"/>
</svg>
