<svg width="24" height="24" viewBox="0 0 24 24" fill="none" xmlns="http://www.w3.org/2000/svg">
<path d="M17.41 6.59L15.6044 5.77334C15.3692 5.66698 15.3692 5.33302 15.6044 5.22666L17.41 4.41L18.2267 2.60436C18.333 2.3692 18.667 2.3692 18.7733 2.60436L19.59 4.41L21.3956 5.22666C21.6308 5.33302 21.6308 5.66698 21.3956 5.77334L19.59 6.59L18.7733 8.39564C18.667 8.6308 18.333 8.6308 18.2267 8.39564L17.41 6.59ZM21.28 12.72L20.7732 11.6025C20.6667 11.3677 20.3333 11.3677 20.2268 11.6025L19.72 12.72L18.6025 13.2268C18.3677 13.3333 18.3677 13.6667 18.6025 13.7732L19.72 14.28L20.2268 15.3975C20.3333 15.6323 20.6667 15.6323 20.7732 15.3975L21.28 14.28L22.3975 13.7732C22.6323 13.6667 22.6323 13.3333 22.3975 13.2268L21.28 12.72Z" fill="#7B7B7B"/>
<path fill-rule="evenodd" clip-rule="evenodd" d="M9.72458 9.15237L10.5247 9.42982C11.1663 9.65233 11.7597 9.99126 12.2735 10.4299L12.9119 10.9751L13.7105 10.716L13.9096 10.6513C14.2744 10.533 14.6659 10.6871 14.8506 11.0045C15.033 11.3179 14.9715 11.7161 14.6948 11.9623L14.5389 12.1011L13.9031 12.6668L14.0625 13.5027C14.1881 14.161 14.1871 14.837 14.0613 15.4956L13.9015 16.3318L14.5375 16.8977L14.6948 17.0377L15.6919 15.9171L14.6948 17.0377C14.9715 17.2839 15.033 17.6821 14.8506 17.9955C14.6659 18.3129 14.2744 18.467 13.9096 18.3487L13.7098 18.2838L12.9123 18.0251L12.2741 18.5689C12.0196 18.7857 11.7429 18.9805 11.4457 19.1508C11.1485 19.321 10.8397 19.4615 10.5225 19.572L9.72407 19.8501L9.54856 20.6771L9.50527 20.8812C9.43043 21.2339 9.11182 21.5 8.72727 21.5C8.34272 21.5 8.02412 21.2339 7.94928 20.8812L7.90575 20.676L7.72996 19.8476L6.92988 19.5702C6.28827 19.3477 5.69484 19.0087 5.18106 18.5701L4.54261 18.0249L3.74408 18.284L3.54495 18.3487C3.18016 18.467 2.78865 18.3129 2.60395 17.9955C2.42157 17.6821 2.48307 17.2839 2.75972 17.0377L2.9157 16.8989L3.55146 16.3332L3.392 15.4973C3.26644 14.839 3.26742 14.163 3.39327 13.5044L3.55303 12.6682L2.91704 12.1023L2.75972 11.9623L1.7626 13.0829L2.75972 11.9623C2.48307 11.7161 2.42157 11.3179 2.60395 11.0045C2.78865 10.6871 3.18016 10.533 3.54495 10.6513L3.7447 10.7162L4.54225 10.975L5.18049 10.4311C5.43498 10.2143 5.71169 10.0195 6.00888 9.84923C6.30607 9.679 6.61483 9.5385 6.93201 9.42804L7.73047 9.14995L7.90598 8.32286L7.94928 8.11883C8.02412 7.76614 8.34272 7.5 8.72727 7.5C9.11182 7.5 9.43043 7.76614 9.50527 8.11883L9.5488 8.32399L9.72458 9.15237ZM1.7626 13.0829L1.91992 13.2229C1.75883 14.066 1.75729 14.9328 1.91857 15.7783L1.7626 15.9171C0.954834 16.6359 0.76497 17.8177 1.3075 18.75C1.85003 19.6823 2.97662 20.1101 4.00792 19.7754L4.20705 19.7108C4.86446 20.2721 5.6219 20.7042 6.43842 20.9874L6.48195 21.1925C6.70549 22.2459 7.64221 23 8.72727 23C9.81233 23 10.7491 22.2459 10.9726 21.1925L11.0159 20.9885C11.4208 20.8475 11.8139 20.6685 12.1912 20.4524C12.5685 20.2363 12.9214 19.988 13.2469 19.7106L13.4466 19.7754C14.4779 20.1101 15.6045 19.6823 16.147 18.75C16.6896 17.8177 16.4997 16.6359 15.6919 15.9171L15.5346 15.7771C15.6957 14.934 15.6973 14.0672 15.536 13.2217L15.6919 13.0829C16.4997 12.3641 16.6896 11.1823 16.147 10.25C15.6045 9.31773 14.4779 8.88993 13.4466 9.22457L13.2475 9.28919C12.5901 8.72787 11.8326 8.29578 11.0161 8.01262L10.9726 7.80746C10.7491 6.75406 9.81233 6 8.72727 6C7.64221 6 6.70549 6.75406 6.48195 7.80746L6.43866 8.01149C6.03379 8.1525 5.64062 8.33152 5.26333 8.54763C4.88604 8.76374 4.53319 9.01203 4.20767 9.28939L4.00792 9.22457C2.97662 8.88993 1.85003 9.31773 1.3075 10.25C0.76497 11.1823 0.954834 12.3641 1.7626 13.0829ZM8.7282 17.3061C10.2904 17.3061 11.5567 16.0497 11.5567 14.4999C11.5567 12.95 10.2904 11.6936 8.7282 11.6936C7.16604 11.6936 5.89966 12.95 5.89966 14.4999C5.89966 16.0497 7.16604 17.3061 8.7282 17.3061ZM8.72789 15.7607C8.02605 15.7607 7.45709 15.1962 7.45709 14.4999C7.45709 13.8036 8.02605 13.2392 8.72789 13.2392C9.42973 13.2392 9.99868 13.8036 9.99868 14.4999C9.99868 15.1962 9.42973 15.7607 8.72789 15.7607Z" fill="#7B7B7B"/>
</svg>
