<svg width="24" height="24" viewBox="0 0 24 24" fill="none" xmlns="http://www.w3.org/2000/svg">
<path fill-rule="evenodd" clip-rule="evenodd" d="M16.5 13.5L17.7071 12.2929C17.8946 12.1054 18 11.851 18 11.5858V7C18 4.23858 15.7614 2 13 2H10C7.23858 2 5 4.23858 5 7V16.1707C3.83481 16.5825 3 17.6938 3 19V20.5C3 20.7761 3.22386 21 3.5 21H19.5C19.7761 21 20 20.7761 20 20.5V19C20 17.6916 19.1624 16.5788 17.9941 16.1686C17.9876 16.109 17.9758 16.0501 17.9588 15.9928C17.9349 15.9124 17.901 15.835 17.8575 15.7625L16.5 13.5ZM8.5 8.89998C7.94772 8.89998 7.5 8.55226 7.5 7.99998C7.5 7.44769 7.94772 7.09998 8.5 7.09998H14.5C15.0523 7.09998 15.5 7.44769 15.5 7.99998C15.5 8.55226 15.0523 8.89998 14.5 8.89998H8.5ZM8.5 12.9C7.94772 12.9 7.5 12.5523 7.5 12C7.5 11.4477 7.94772 11.1 8.5 11.1H12.5C13.0523 11.1 13.5 11.4477 13.5 12C13.5 12.5523 13.0523 12.9 12.5 12.9H8.5Z" fill="#7B7B7B"/>
</svg>
