<svg width="24" height="24" viewBox="0 0 24 24" fill="none" xmlns="http://www.w3.org/2000/svg">
<path fill-rule="evenodd" clip-rule="evenodd" d="M16.5 13.5L17.7071 12.2929C17.8946 12.1054 18 11.851 18 11.5858V7C18 4.23858 15.7614 2 13 2H10C7.23858 2 5 4.23858 5 7V16.1707C3.83481 16.5825 3 17.6938 3 19V21H20V19C20 17.6916 19.1624 16.5788 17.9941 16.1686C17.9876 16.109 17.9758 16.0501 17.9588 15.9928C17.9349 15.9124 17.901 15.835 17.8575 15.7625L16.5 13.5ZM15.8965 15.9928L14.9565 14.4261C14.5316 13.7178 14.6432 12.8113 15.2272 12.2272L16.2 11.2544V7C16.2 5.23269 14.7673 3.8 13 3.8H10C9.82102 3.8 9.64547 3.81469 9.4745 3.84294L9.56588 3.93433C9.78015 4.14859 9.85496 4.46553 9.75914 4.75299L9.47855 5.59476L10.858 6.28447C11.2531 6.48206 11.4133 6.9626 11.2157 7.35778C11.0181 7.75297 10.5376 7.91315 10.1424 7.71555L8.14242 6.71555C7.78633 6.53751 7.61535 6.12472 7.74125 5.74703L8.0849 4.71608L7.92915 4.56033C7.23832 5.1473 6.8 6.02246 6.8 7V15.9928H15.8965ZM9.5 10.9C8.94772 10.9 8.5 10.5523 8.5 9.99998C8.5 9.44769 8.94772 9.09998 9.5 9.09998H13.5C14.0523 9.09998 14.5 9.44769 14.5 9.99998C14.5 10.5523 14.0523 10.9 13.5 10.9H9.5ZM8.5 13C8.5 13.5523 8.94772 13.9 9.5 13.9H11.5C12.0523 13.9 12.5 13.5523 12.5 13C12.5 12.4477 12.0523 12.1 11.5 12.1H9.5C8.94772 12.1 8.5 12.4477 8.5 13ZM4.8 19C4.8 18.3373 5.33726 17.8 6 17.8H17C17.6627 17.8 18.2 18.3373 18.2 19V19.2H4.8V19Z" fill="#7B7B7B"/>
</svg>
