<svg width="24" height="24" viewBox="0 0 24 24" fill="none" xmlns="http://www.w3.org/2000/svg">
<path fill-rule="evenodd" clip-rule="evenodd" d="M2.32966 12.067C4.14135 7.69499 7.84916 4.85718 12.0004 4.85718C16.1517 4.85718 19.8595 7.69499 21.6712 12.067C21.7292 12.2071 21.7292 12.3644 21.6712 12.5045C19.8595 16.8765 16.1517 19.7143 12.0004 19.7143C7.84916 19.7143 4.14135 16.8765 2.32966 12.5045C2.27162 12.3644 2.27162 12.2071 2.32966 12.067ZM11.9997 15.285C10.3428 15.285 8.99969 13.9419 8.99969 12.285C8.99969 10.6282 10.3428 9.28503 11.9997 9.28503C13.6565 9.28503 14.9997 10.6282 14.9997 12.285C14.9997 13.9419 13.6565 15.285 11.9997 15.285ZM13.7147 12.2857C13.7147 13.2325 12.9472 14 12.0004 14C11.0536 14 10.2861 13.2325 10.2861 12.2857C10.2861 11.339 11.0536 10.5715 12.0004 10.5715C12.9472 10.5715 13.7147 11.339 13.7147 12.2857Z" fill="#7B7B7B"/>
</svg>
