<svg width="24" height="24" viewBox="0 0 24 24" fill="none" xmlns="http://www.w3.org/2000/svg">
<path fill-rule="evenodd" clip-rule="evenodd" d="M11.1429 0.857143C11.1429 0.383756 11.5266 0 12 0C12.4734 0 12.8571 0.383756 12.8571 0.857143V3.14286C12.8571 3.61624 12.4734 4 12 4C11.5266 4 11.1429 3.61624 11.1429 3.14286V0.857143ZM12 14C12.9468 14 13.7143 13.2325 13.7143 12.2857C13.7143 11.3389 12.9468 10.5714 12 10.5714C11.0532 10.5714 10.2857 11.3389 10.2857 12.2857C10.2857 13.2325 11.0532 14 12 14ZM21.7489 1.39391C21.4142 1.05917 20.8715 1.05917 20.5368 1.39391L18.2511 3.67962C17.9163 4.01436 17.9163 4.55707 18.2511 4.89181C18.5858 5.22654 19.1285 5.22654 19.4632 4.89181L21.7489 2.60609C22.0837 2.27136 22.0837 1.72864 21.7489 1.39391ZM3.46323 1.39391L5.74895 3.67962C6.08368 4.01436 6.08368 4.55707 5.74895 4.89181C5.41421 5.22654 4.8715 5.22654 4.53677 4.89181L2.25105 2.60609C1.91632 2.27136 1.91632 1.72864 2.25105 1.39391C2.58579 1.05917 3.1285 1.05917 3.46323 1.39391ZM2.32924 12.067C4.14093 7.69495 7.84874 4.85714 12 4.85714C16.1513 4.85714 19.8591 7.69495 21.6708 12.067C21.7288 12.207 21.7288 12.3644 21.6708 12.5045C19.8591 16.8765 16.1513 19.7143 12 19.7143C7.84874 19.7143 4.14093 16.8765 2.32924 12.5045C2.2712 12.3644 2.2712 12.207 2.32924 12.067ZM12 15.1429C10.422 15.1429 9.14286 13.8637 9.14286 12.2857C9.14286 10.7078 10.422 9.42857 12 9.42857C13.578 9.42857 14.8571 10.7078 14.8571 12.2857C14.8571 13.8637 13.578 15.1429 12 15.1429Z" fill="#7B7B7B"/>
</svg>
