<svg width="20" height="20" viewBox="0 0 20 20" fill="none" xmlns="http://www.w3.org/2000/svg">
<path fill-rule="evenodd" clip-rule="evenodd" d="M18.3332 10.0001C18.3332 14.6025 14.6022 18.3334 9.99984 18.3334C5.39746 18.3334 1.6665 14.6025 1.6665 10.0001C1.6665 5.39771 5.39746 1.66675 9.99984 1.66675C14.6022 1.66675 18.3332 5.39771 18.3332 10.0001ZM3.33317 10.0001C3.33317 13.682 6.31794 16.6667 9.99984 16.6667C13.6817 16.6667 16.6665 13.682 16.6665 10.0001C16.6665 6.31818 13.6817 3.33341 9.99984 3.33341C6.31794 3.33341 3.33317 6.31818 3.33317 10.0001ZM9.1665 6.66675V10.8334C9.1665 11.2937 9.5396 11.6667 9.99984 11.6667C10.4601 11.6667 10.8332 11.2937 10.8332 10.8334V6.66675C10.8332 6.20651 10.4601 5.83341 9.99984 5.83341C9.5396 5.83341 9.1665 6.20651 9.1665 6.66675ZM10.8332 13.3334C10.8332 13.7937 10.4601 14.1667 9.99984 14.1667C9.5396 14.1667 9.1665 13.7937 9.1665 13.3334C9.1665 12.8732 9.5396 12.5001 9.99984 12.5001C10.4601 12.5001 10.8332 12.8732 10.8332 13.3334Z" fill="#DA5050"/>
</svg>
