<svg width="18" height="18" viewBox="0 0 18 18" fill="none" xmlns="http://www.w3.org/2000/svg">
<path fill-rule="evenodd" clip-rule="evenodd" d="M17.3332 9.00002C17.3332 13.6024 13.6022 17.3334 8.99984 17.3334C4.39746 17.3334 0.666504 13.6024 0.666504 9.00002C0.666504 4.39765 4.39746 0.666687 8.99984 0.666687C13.6022 0.666687 17.3332 4.39765 17.3332 9.00002ZM2.33317 9.00002C2.33317 12.6819 5.31794 15.6667 8.99984 15.6667C12.6817 15.6667 15.6665 12.6819 15.6665 9.00002C15.6665 5.31812 12.6817 2.33335 8.99984 2.33335C5.31794 2.33335 2.33317 5.31812 2.33317 9.00002ZM8.1665 5.66669V9.83335C8.1665 10.2936 8.5396 10.6667 8.99984 10.6667C9.46007 10.6667 9.83317 10.2936 9.83317 9.83335V5.66669C9.83317 5.20645 9.46007 4.83335 8.99984 4.83335C8.5396 4.83335 8.1665 5.20645 8.1665 5.66669ZM9.83317 12.3334C9.83317 12.7936 9.46007 13.1667 8.99984 13.1667C8.5396 13.1667 8.1665 12.7936 8.1665 12.3334C8.1665 11.8731 8.5396 11.5 8.99984 11.5C9.46007 11.5 9.83317 11.8731 9.83317 12.3334Z" fill="#EE5C5C"/>
</svg>
